# xmcd CD database file
#
# Track frame offsets:
#	150
#	27977
#	55246
#	83247
#	111368
#	113435
#	152913
#	194389
#	219591
#	250401
#	283669
#
# Disc length: 4209 seconds
#
# Revision: 0
# Processed by: cddbd v1.5.1PL2 Copyright (c) Steve Scherf et al.
# Submitted via: CDex 1.51
#
DISCID=9b106f0b
DTITLE=Big Bang - Way In Jazz
DYEAR=2006
DGENRE=Jazz
TTITLE0=My Favourite Things
TTITLE1=Dancin' Nights
TTITLE2=Summer Fields
TTITLE3=Yo Yo Jazz
TTITLE4=Thinking...
TTITLE5=To The Full Every Minute
TTITLE6=Smile In Your Eyes
TTITLE7=Batucada Mondiale
TTITLE8=Sweet Y Sour
TTITLE9=Spinning 6 Turning 8
TTITLE10=Spiral Walts
EXTD=YEAR: 2006
EXTT0=
EXTT1=
EXTT2=
EXTT3=
EXTT4=
EXTT5=
EXTT6=
EXTT7=
EXTT8=
EXTT9=
EXTT10=
PLAYORDER=
